<svg xmlns="http://www.w3.org/2000/svg" viewBox="0 0 32 32" fill="#fd971f"><g id="setting"><path d="M16,11a5,5,0,1,0,5,5A5,5,0,0,0,16,11Zm0,8a3,3,0,1,1,3-3A3,3,0,0,1,16,19Z"/><path d="M29,13H26.58a10.8,10.8,0,0,0-1-2.36l1.71-1.71a1,1,0,0,0,0-1.42L24.49,4.69a1,1,0,0,0-1.42,0L21.36,6.4a10.8,10.8,0,0,0-2.36-1V3a1,1,0,0,0-1-1H14a1,1,0,0,0-1,1V5.42a10.8,10.8,0,0,0-2.36,1L8.93,4.69a1,1,0,0,0-1.42,0L4.69,7.51a1,1,0,0,0,0,1.42L6.4,10.64a10.8,10.8,0,0,0-1,2.36H3a1,1,0,0,0-1,1v4a1,1,0,0,0,1,1H5.42a10.8,10.8,0,0,0,1,2.36L4.69,23.07a1,1,0,0,0,0,1.42l2.82,2.82a1,1,0,0,0,1.42,0l1.71-1.71a10.8,10.8,0,0,0,2.36,1V29a1,1,0,0,0,1,1h4a1,1,0,0,0,1-1V26.58a10.8,10.8,0,0,0,2.36-1l1.71,1.71a1,1,0,0,0,1.42,0l2.82-2.82a1,1,0,0,0,0-1.42L25.6,21.36a10.8,10.8,0,0,0,1-2.36H29a1,1,0,0,0,1-1V14A1,1,0,0,0,29,13Zm-1,4H25.8a1,1,0,0,0-1,.8A9,9,0,0,1,23.51,21a1,1,0,0,0,.12,1.26l1.56,1.56-1.41,1.41-1.56-1.56A1,1,0,0,0,21,23.51a9,9,0,0,1-3.16,1.31,1,1,0,0,0-.8,1V28H15V25.8a1,1,0,0,0-.8-1A9,9,0,0,1,11,23.51a1,1,0,0,0-1.26.12L8.22,25.19,6.81,23.78l1.56-1.56A1,1,0,0,0,8.49,21,9,9,0,0,1,7.18,17.8a1,1,0,0,0-1-.8H4V15H6.2a1,1,0,0,0,1-.8A9,9,0,0,1,8.49,11a1,1,0,0,0-.12-1.26L6.81,8.22,8.22,6.81,9.78,8.37A1,1,0,0,0,11,8.49,9,9,0,0,1,14.2,7.18a1,1,0,0,0,.8-1V4h2V6.2a1,1,0,0,0,.8,1A9,9,0,0,1,21,8.49a1,1,0,0,0,1.26-.12l1.56-1.56,1.41,1.41L23.63,9.78A1,1,0,0,0,23.51,11a9,9,0,0,1,1.31,3.16,1,1,0,0,0,1,.8H28Z"/></g></svg>
